{
    "asset": {
        "version": "2.0",
        "generator": "Open Asset Import Library (assimp v5.2.cf7d3637)"
    },
    "extensionsUsed": [
        "KHR_materials_volume",
        "FB_ngon_encoding"
    ],
    "accessors": [
        {
            "bufferView": 0,
            "byteOffset": 0,
            "componentType": 5126,
            "count": 1877280,
            "type": "VEC3",
            "max": [
                0.12213099747896195,
                0.5,
                0.20521500706672669
            ],
            "min": [
                -0.12213099747896195,
                -0.5,
                -0.20521500706672669
            ]
        },
        {
            "bufferView": 1,
            "byteOffset": 0,
            "componentType": 5126,
            "count": 1877280,
            "type": "VEC3",
            "max": [
                1.0,
                1.0,
                1.0
            ],
            "min": [
                -1.0,
                -1.0,
                -1.0
            ]
        },
        {
            "bufferView": 2,
            "byteOffset": 0,
            "componentType": 5126,
            "count": 1877280,
            "type": "VEC2",
            "max": [
                0.9926760196685791,
                0.9997559785842896
            ],
            "min": [
                0.0004879999905824661,
                0.00024402141571044922
            ]
        },
        {
            "bufferView": 3,
            "byteOffset": 0,
            "componentType": 5125,
            "count": 1877280,
            "type": "SCALAR",
            "max": [
                1877279
            ],
            "min": [
                0
            ]
        }
    ],
    "buffers": [
        {
            "byteLength": 67582080,
            "uri": "3d.bin"
        }
    ],
    "bufferViews": [
        {
            "buffer": 0,
            "byteOffset": 0,
            "byteLength": 22527360,
            "target": 34962
        },
        {
            "buffer": 0,
            "byteOffset": 22527360,
            "byteLength": 22527360,
            "target": 34962
        },
        {
            "buffer": 0,
            "byteOffset": 45054720,
            "byteLength": 15018240,
            "target": 34962
        },
        {
            "buffer": 0,
            "byteOffset": 60072960,
            "byteLength": 7509120,
            "target": 34963
        }
    ],
    "images": [
        {
            "uri": "data:image/png;base64,"
        }
    ],
    "materials": [
        {
            "name": "tripo_mat_8678a681-7f4d-4672-8f4a-bc83df51ea6a",
            "pbrMetallicRoughness": {
                "baseColorTexture": {
                    "index": 0
                },
                "metallicFactor": 0.0
            }
        },
        {
            "name": "material"
        }
    ],
    "meshes": [
        {
            "name": "meshes[0]",
            "primitives": [
                {
                    "mode": 4,
                    "material": 0,
                    "indices": 3,
                    "attributes": {
                        "POSITION": 0,
                        "NORMAL": 1,
                        "TEXCOORD_0": 2
                    }
                }
            ]
        }
    ],
    "nodes": [
        {
            "name": "empty_2",
            "children": [
                1
            ]
        },
        {
            "name": "o tripo_node_8678a681-7f4d-4672-8f4a-bc83df51ea6a",
            "mesh": 0
        }
    ],
    "samplers": [
        {
            "wrapS": 33071,
            "wrapT": 33071,
            "magFilter": 9729,
            "minFilter": 9987
        }
    ],
    "scenes": [
        {
            "nodes": [
                0
            ]
        }
    ],
    "textures": [
        {
            "source": 0,
            "sampler": 0
        }
    ],
    "scene": 0
}